<svg xmlns="http://www.w3.org/2000/svg" viewBox="0 0 1000 1000" fill="#cccccc" width="100px" height="100px">
    <path
        d="M454.3 55.4c29.2-12.7 63.5-10.9 90.3 0 22.9 9.3 361.7 152.8 410.3 173.4 50.5 21.5 42.7 58.7 0 76.7S575.2 466 548.7 476.5c-36.5 14.5-65.5 13.6-94.5 1.2C428 466.5 67.1 314.3 34.4 300.6s-32.4-53.3 0-67.2c46.3-19.9 381.9-161.5 419.9-178zM80.1 266.9S460.8 428.4 477.3 435c16.5 6.6 30.2 6.4 45.5 0 18.7-7.8 396.8-168.1 396.8-168.1S530 101.6 520.8 97.7s-31.2-3.9-40.5 0S80.1 266.9 80.1 266.9z" />
    <path
        d="M944.2 412.5s-402.6 170-421.3 177.8c-15.3 6.4-29 6.6-45.5 0S55.7 412.5 55.7 412.5l-18.8 44.4s391.3 165 417.6 176.2c29 12.4 58 13.3 94.5-1.2 26.5-10.5 414.7-174.7 414.7-174.7l-19.5-44.7z" />
    <path
        d="M944.2 567.7s-402.6 170-421.3 177.8c-15.3 6.4-29 6.6-45.5 0S55.7 567.7 55.7 567.7l-18.8 44.4s391.3 165 417.6 176.2c29 12.4 58 13.3 94.5-1.2 26.5-10.5 414.7-174.7 414.7-174.7l-19.5-44.7z" />
    <path
        d="M944 723.4s-402.6 170-421.3 177.8c-15.3 6.4-29 6.6-45.5 0S55.5 723.4 55.5 723.4l-18.8 44.4S428 932.8 454.3 944c29 12.4 58 13.3 94.5-1.2 26.5-10.5 414.7-174.7 414.7-174.7L944 723.4z" />
</svg>