<svg xmlns="http://www.w3.org/2000/svg" height="100px" width="100px" viewBox="0 0 1000 1000"  fill="#cccccc"><path d="M438.9 408.1c270.7 0 459.5-68.6 459.5-153.2V163c0-84.6-188.8-153.2-459.5-153.2C168.2 9.9 10 78.5 10 163v91.9c0 84.6 158.2 153.2 428.9 153.2zm-55.6 366.5c-185.9-6.9-294.5-49.3-351.6-106.1C17.1 683 10 698.4 10 714.5V837c0 84.6 158.2 153.1 428.9 153.1 27.1 0 53.5-.8 79.4-2.2-69.6-49.9-119.2-125.6-135-213.3zm-5.6-61.5c.3-81 29.1-155.2 77.1-213.2-5.8 0-11.4.1-17.4.1-219.5 0-343.2-45.1-405.6-107.2-14.6 14.5-21.7 30-21.7 46v122.5c-.1 77.9 134.5 142.2 367.6 151.8zm67.1-55.9c26.2-23.4 66.8-46.5 125-46.5 82.1 0 121.5 43.8 156.3 82.5 32 35.6 59.6 66.4 118.3 66.4 78.9 0 135.1-47.7 145.6-57.3-6.4-146.6-127.2-263.6-275.4-263.6-132.7 0-243.4 93.7-269.8 218.5z"/><path d="M697.1 719.4c-33.5-37.3-62.5-69.6-127.2-69.6-91.7 0-128.4 72.5-128.7 73.2l-2.1-1c4 148.8 125.9 268.1 275.6 268.1 139 0 254-102.9 273-236.7-30.2 20.2-80.3 45.2-143.2 45.2-76.2.1-114-42.1-147.4-79.2z"/></svg>