<svg xmlns="http://www.w3.org/2000/svg" xmlns:xlink="http://www.w3.org/1999/xlink" width="1200" height="1000">
    <symbol id="prefix__a" viewBox="-54.045 -54.277 108.089 108.554">
        <g fill="#1A1A1A">
            <path
                d="M33.523 18.33l-.002-.004h.002zM38.856-5.782c-.82-1.612-.57-2.881.743-3.958.926-.759 2.038-.969 3.2-.945.467.01.928.087 1.393.107.253.012.514-.004.762-.058.467-.104.676-.034.836.414.363 1.026.535 2.088.411 3.17-.058.518-.167 1.051-.37 1.527-.809 1.89-3.262 2.665-5.074 1.635a4.996 4.996 0 01-.66-.459c-.219-.18-.422-.387-.652-.6.104-.121.186-.232.283-.331a.82.82 0 00.236-.791c-.209-.938.199-1.604.982-2.031.559-.306 1.172-.524 1.779-.729.314-.104.639-.18.966-.25a.305.305 0 01.221.083c.492.316.841.734 1.056 1.273.118-.317.094-.852-.01-1.244-.062-.247-.021-.842.103-1.018-.011-.009-.019-.021-.027-.032-.057.031-.114.057-.169.091-.627.387-1.328.507-2.045.595-.885.114-1.748.317-2.5.828-.908.611-1.394 1.465-1.444 2.562-.004.036-.011.069-.02.161zm4.282.121a1.2 1.2 0 10-2.4.002 1.2 1.2 0 002.4-.002z" />
        </g>
        <path fill="#1A1A1A"
            d="M52.999-39.423c.059.381.123.739.191 1.099.15.798.305 1.626.361 2.473.191 2.991-.746 5.609-2.785 7.786l.071.321c.098.456.217 1.025.284 1.58.172 1.374-.269 2.606-1.349 3.774-.033.036-.069.073-.088.104-.263.789-.831 1.421-1.679 1.848a6.732 6.732 0 01-1.568.562c.652.269 1.307.597 1.975.996.077.046.111.055.111.055a5.118 5.118 0 014.273 4.174l.021.15c.011.093.022.194.034.226.859 1.325 1.016 2.825.461 4.442a22.366 22.366 0 01-.604 1.506 25 25 0 00-.441 1.069c-.156.403-.327.851-.363 1.26-.103 1.137-.27 2.633-.682 4.122-.861 3.098-2.357 5.525-4.577 7.421-2.026 1.735-4.188 2.477-7.111 2.913.397-.625-.131-.906.152-1.596a2.05 2.05 0 00.144-.803c4.998-1.708 8.775-6.258 9.412-11.728.018-.16.035-.323.048-.486.036-.45.075-.915.222-1.372.168-.529.412-1.022.646-1.498.098-.197.195-.393.286-.595.083-.18.169-.36.255-.539.178-.373.379-.796.539-1.212.143-.368.193-.746.152-1.125-.008.004-.192.15-.273.209l-.218.17c-.215.171-.444.355-.705.499a1.169 1.169 0 01-.575.153c-.338 0-.645-.146-.886-.422l-.396-.451.575-.454.306-.27c.504-.45.984-.876 1.457-1.309-.061-.734-.326-1.355-.79-1.827-.579-.587-1.174-.775-1.796-.87-.701-.106-1.201.219-1.201.219s-.388-2.124-4.784-2.13l-.269.002c-1.293 0-2.539-.36-3.923-1.134-1.821-1.509-5.908-1.355-5.908-1.355a15.83 15.83 0 00-3.269.898c-1.921.769-3.612 1.858-4.924 3.482a9.335 9.335 0 00-1.598 2.901c-.034.097-.074.189-.111.287a6.391 6.391 0 01.643-2.934c.904-1.854 2.395-3.069 4.26-3.867 1.617-.692 3.314-.928 5.062-.843l.369-.414a.94.94 0 01.496-.289 9.836 9.836 0 012.304-.252c.323 0 2.286.451 4.287-.559.181-.091.423-.198.712-.198.148 0 .292.025.434.079l.221.084c.475.179 1.403.56 1.403.56 5.721 1.259 6.536-3.066 6.536-3.066a1.28 1.28 0 01-.516.121c-.225 0-.436-.075-.627-.218l-.65-.494.977-.614c.202-.125.383-.238.559-.358.224-.152.312-.361.301-.699-.026-.882-1.056-1.779-2.036-1.779-.112 0-.22.011-.321.034-.4.088-.619.219-.749.444a.825.825 0 01-.679.4l-.26-.011c-.311-.015-.629-.026-.951-.101l-.074-.017c-.434-.098-.836-.19-1.23-.19-.141 0-.271.014-.402.039-.187.034-.37.078-.556.125l-.868.206-.146-.519a6.065 6.065 0 00-1.092-2.113c-1.109-1.409-2.596-2.406-4.544-3.044-1.436-.472-2.988-.71-4.609-.71-.856 0-1.757.066-2.681.197-3.486.5-5.921 2.393-7.233 5.627-.218.534-.372 1.125-.522 1.695-.084.322-.16.624-.248.922-.46 1.565-1.043 2.954-1.781 4.246-1.36 2.375-3.049 4.068-5.163 5.183a11.717 11.717 0 01-5.513 1.345c-.814 0-1.665-.077-2.526-.229-.356-.064-.718-.1-1.071-.231-1.86-.712-2.093-1.038-2.093-1.038l.899-.054c.149-.008.476-.053.805-.096.363-.047.73-.095.889-.102.627-.03 1.223-.059 1.811-.121 2.465-.248 4.708-1.004 6.664-2.243 2.629-1.667 4.24-3.729 4.922-6.301a25.04 25.04 0 011.781-4.692c.455-.909 1.032-1.961 1.879-2.868 1.199-1.287 2.734-2.161 4.824-2.75.559-.156 1.108-.33 1.574-.479.055-.015.111-.047.169-.197a3.524 3.524 0 00.19-2.006c-.205-1.052-.712-2.03-1.548-2.995-.665-.764-1.525-1.348-2.36-1.911-.463-.311-.895-.64-1.293-.977-.494-.423-.75-.99-.724-1.596.022-.5.061-1.336.911-1.336.183 0 .395.043.726.153.142.046.281.104.42.163l.735.319c.41.175.821.353 1.23.526.822.34 1.625.515 2.392.515a5 5 0 001.198-.143c1.123-.269 2.149-.882 2.385-1.769 0 0 .784-3.402-4.865-3.359-.456 0-.92.109-1.413.229l-.265.062a6.57 6.57 0 01-1.476.188c-.429 0-.823-.074-1.204-.146l-.175-.03c-1.127-.205-2.336-.298-3.917-.298l-33.621.029c-2.967 0-5.783.417-8.368 1.094-10.759 2.814-18.417 8.839-23.413 18.029a34.275 34.275 0 00-3.691 10.79c.033-.056.295-.909.295-.909 1.486-2.53 3.287-4.529 3.287-4.529s-4.087 10.853-4.088 11.325a37.044 37.044 0 00.271 4.524c.115-.38.235-.753.366-1.125 1.831-5.219 4.608-10.106 8.487-14.949.095-.116.17-.252.209-.373a24.177 24.177 0 012.416-5.221c-2.271.466-5.514 3.66-5.514 3.66l.422-.812c2.535-4.888 8.506-7.864 9.674-8.288 3.423-3.041 7.58-5.245 12.35-6.555.27-.074.543-.138.814-.2l2.33-.556-1.488 1.441c-.171.167-.355.231-.469.271-3.379 1.206-6.471 2.906-9.188 5.049-3.551 2.797-6.105 6.223-7.596 10.171-.18.474-.16.721-.076.943.08.216.137.436.191.648.038.154.065.263.098.367.791 2.582 1.982 4.603 3.65 6.169 1.555 1.466 3.544 2.541 6.087 3.286 2.421.712 4.976 1.039 7.446 1.354l1.077.139c1.397.182 2.809.401 4.173.61l.711.111a21.994 21.994 0 01-2.385-3.806c-.168-.055-5.186-1.184-5.785-1.311-7.969-1.7-8.507-6.762-8.507-6.762s3.44 4.559 11.714 4.807l.289.003a31.9 31.9 0 001.01-.03c-2.295-11.986 2.152-16.15 2.115-16.014-1.008 3.831-1.26 7.316-.771 10.659.629 4.334 2.541 8.068 5.676 11.101 2.132 2.062 4.818 3.795 8.208 5.302C.043-9.932 3.147-9.136 6.073-8.43l.561.132c2.141.516 4.314 1.039 6.43 1.66 3.275.96 6.125 2.542 8.467 4.704.356.329.763.701 1.105 1.147 1.658 2.148 3.539 3.779 5.711 4.99.299-1.371 1.086-2.661 2.369-3.444-1.349 2.311-2.031 4.666-1.393 6.841.608 1.945 1.617 2.922 2.688 4.801 1.273 2.455 1.41 5.939 1.431 5.961.234.241.397.478.639.714.296.295.571.585.862.884a6.601 6.601 0 011.758 3.337c.277 1.388-.355 2.13-.355 2.13.234.854.546 1.691.611 2.547.12 1.594-.37 3.065-.592 3.065-.109 0-2.045-2.207-3.109-2.62-.252 1.516-.641 3.052-1.246 4.971-.454 1.443-.58 2.627-.397 3.731.138.824 1.139 1.972 1.139 1.972l.464.547-.639.326c-.105.062-.927.245-1.203.245-.805 0-1.465-.289-1.942-.843a8.331 8.331 0 00-.048 1.991c.105 1.155.566 2.215.952 3.013.118.242.265.562.367.906.121.422.062.82-.167 1.128-.229.307-.594.474-1.026.474a2.937 2.937 0 01-1.004-.176c-1.312-.494-2.337-1.333-3.058-2.495-.236.271-.454.571-.586.933-.176.479-.401.925-.618 1.335-.181.347-.425.521-.722.521a.735.735 0 01-.495-.198 5.771 5.771 0 01-1.841 2.533 1.624 1.624 0 01-.189.126l-1.143.701.225-1.471a30.662 30.662 0 01-9.628 4.104c-.276.065-.556.12-.835.175-.84.166-1.619.318-2.295.739-.082.054-.163.075-.2.085-.098.04-.233.065-.358.065-.264 0-.528-.113-.75-.34-.349.008-.74.035-1.087.067l-.321.016c-.057.006-.495.006-.559.006l-.604-.271s-1.455.941-1.969.941H.992c-.378 0-.718-.245-.897-.55-.146-.246-.365-.177-.437-.179a38.503 38.503 0 01-6.86-1.035c-3.765-.935-6.908-2.338-9.605-4.278-2.359-1.697-4.091-3.567-5.295-5.711a13.694 13.694 0 01-.673-1.441c-.244-.573-.269-1.095-.103-1.604.176-.523.599-.847 1.107-.847.063 0 .131.006.197.017.26.042.52.062.773.062 1.202 0 2.374-.447 3.691-1.404 1.411-1.025 2.412-2.312 2.973-3.815.803-2.159.438-4.166-1.088-5.968-.48 1.596-1.119 2.798-2.01 3.772a5.99 5.99 0 01-2.185 1.543 1.52 1.52 0 01-.392.106l-.215.03s1.045-2.365 1.174-3.355c.271-2.129-.011-5.117-2.08-5.695-.624-.174-1.221-.429-1.832-.642a159.512 159.512 0 01-3.363-1.195c-3.146-1.173-5.946-2.488-8.549-4.022.012.222.042.443.072.676l.041.34a.805.805 0 01.024.126c.062.472-.013.824-.226 1.068a.882.882 0 01-.674.293c-.211 0-.441-.062-.704-.189a3.192 3.192 0 01-1.007-.813c-.749-.9-1.201-1.905-1.671-3.03-.11-.271-.214-.541-.316-.815l-.019-.061c-.095-.248-.189-.505-.292-.749a.94.94 0 00-.22-.319c-2.814-2.391-4.943-4.599-6.7-6.941a38.94 38.94 0 01-3.568-5.716 23.702 23.702 0 00.017 4.612s-2.934-2.368-2.285-10.002a.604.604 0 00-.039-.205c-.852-2.675-1.401-5.34-1.633-7.92-.846-9.451 1.512-18.2 7.005-25.769 5.847-8.06 13.777-13.487 23.571-15.753 2.598-.604 5.469-1.169 9.606-1.169H3.569l23.565.047s2.766.001 4.344.856c1.343.729 2.111 1.459 2.66 2.735.848 1.971.123 4.488-1.688 5.811-1.075.786-2.348 1.181-3.892 1.181-.146 0-.291.005-.439-.001-.154-.008-.31-.019-.462-.032a9.492 9.492 0 012.449 4.312c.189.734.25 1.5.184 2.271l-.005.04.368.019c.824.037 1.654.075 2.473.136a3.932 3.932 0 01-.627-1.207c-.404-1.273-.572-2.338-.53-3.339.073-1.763.744-3.417 1.985-4.906.963-1.15 2.141-2.074 3.599-2.814a3.318 3.318 0 01.11-1.863c.17-.47.479-.85.924-1.099.493-.275 1.028-.445 1.59-.445.201 0 .414-.04.642.012.892-1.972 3.062-1.707 3.062-1.707 1.785.411 2.4 2.096 2.221 3.461-.025.163-.053.34-.09.498l.095.035c.472.112.962.237 1.447.406 3.295 1.146 5.418 3.396 6.315 6.686.404 1.471.109 2.738-.87 3.755zM28.391 12.486C23.349-1.556 11.564-3.452 10.369-3.452l-5.546.12L6.3-4.328l.375-.147c.176-.073.336-.139.507-.188.147-.043.298-.084.444-.125-.746-.157-1.51-.31-2.258-.417-2.01-.286-4.381-.676-6.73-1.389a1.18 1.18 0 00-.318-.048l-.061.003c-2.189.148-4.381.308-6.57.47a52.155 52.155 0 01-3.732.141c-1.408 0-2.721-.064-4.01-.2a33.369 33.369 0 01-8.521-2.067c-7.928-3.377-12.145-7.889-12.145-7.889s8.486 4.309 11.455 5.441c2.842 1.082 5.109 1.354 8.405 1.337 1.47-.009 6.21-.015 9.005-.08A21.884 21.884 0 01-9.75-10.73c-.501-.369-1.048-.646-1.676-.884-.47-.176-.974-.355-1.49-.517-2.17-.687-4.459-1.085-6.67-1.474l-1.312-.23c-2.147-.388-4.434-.804-6.685-1.304-2.229-.491-4.166-1.214-5.922-2.213-3.229-1.834-5.141-4.599-5.686-8.22-.939 1.774-1.493 3.51-1.689 5.287-.333 2.963.553 5.493 2.623 7.518.152.151.248.33.324.485.111.226.217.454.32.683.182.399.389.854.627 1.245.917 1.506 2.229 2.788 4.129 4.037 1.937 1.271 4.219 2.331 7.178 3.332C-21.603-1.608-17.365-.71-13.386.053c1.504.289 3.012.574 4.52.859l.367.068c1.773.334 3.547.668 5.32 1.015 3.105.603 5.587 1.394 7.814 2.489 3.524 1.736 6.198 3.591 8.408 5.836 1.775.057 3.363.221 4.877.508 4.044.767 7.884 2.297 11.426 4.55-.272-1.019-.62-1.959-.955-2.892zm3.878 12.905c.49.238 1.053.399 1.595.557l.474.139a3.54 3.54 0 00-.105-.429c-.833-2.552-2.285-4.821-4.319-6.748-1.312-1.241-2.923-2.261-5.222-3.306-1.932-.879-4.021-1.604-6.477-2.245.705.204 1.409.45 2.106.742 3.61 1.498 6.913 3.771 10.099 6.947a.82.82 0 01.116.145l.977 1.344-1.586-.452a1.377 1.377 0 01-.408-.205c-2.694-1.87-5.154-3.374-7.519-4.597-1.481-.767-3.362-1.613-5.25-2.1-.038-.01-.227-.019-.227-.029v.005c0 .711.348 1.404.879 2.071.388.489 1.126 1.099 1.666 1.511 1.637 1.246 3.43 2.25 4.941 3.037-.553-.711-1.131-1.276-1.914-1.666 0 0 .909-.957 2.09-.532 1.348.485 1.974.954 2.85 1.685.49.412.977.83 1.459 1.25.566.489 1.268 1.098 1.949 1.652.491.395 1.138.893 1.826 1.224zm-6.501 14.675c.452 1.719.982 2.95 1.698 3.987.331.474.673.823 1.053 1.079-.018-.04-.075-.178-.075-.178-1.046-2.551-1.558-5.255-1.567-8.275a11.405 11.405 0 00-.103-1.292c-.28-2.386-1.628-4.326-2.449-5.2.2 3.77.664 6.937 1.443 9.879zm-46.99-20.919c.896.852 1.666 1.586 2.229 2.231.972 1.125 1.499 2.483 1.915 3.667.023.067.044.134.067.199.499-1.281.606-2.396.358-3.542-.658-3.04-1.885-5.365-3.747-7.104-.028-.024 3.106.166 5.634 2.93 2.408 2.631 3.68 5.811 3.857 9.379.066 1.373-.09 2.726-.243 4.035l-.062.53c-.47 4.134-3.54 7.583-7.646 8.583a3.185 3.185 0 00-.718.262c-.098.051-.122.064-.064.221.03.085.078.179.149.291a8.087 8.087 0 002.465 2.469c.578.367 1.133.718 1.662 1.098 2.276 1.629 4.548 2.738 6.946 3.398.839.231 1.744.338 2.636.455.767.101 3.36.101 3.36.101s-.898 1.718-3.8 1.767c-.094.001-.189.004-.285.004a8.58 8.58 0 01-.455-.012c.082.028.162.054.249.08 1.239.374 2.521.556 3.922.556.461 0 .938-.021 1.421-.062l.149-.013c.53-.042 1.009-.042 1.391-.306 1.761-1.218 3.272-1.278 3.272-1.278l-.207.736-.135.338-.035.097c-.061.161-.105.285-.17.408l-.197.372c.113-.042.225-.09.33-.139.724-.342 1.443-.43 2.051-.472a33.237 33.237 0 002.572-.263c1.101-.159 1.927-.728 2.46-1.695.16-.288.342-.562.48-.808.597-1.048 1.862-1.149 1.862-1.149l-.396.914-.383 1.312c.194-.155.411-.313.554-.537.696-1.095 2.333-1.218 2.333-1.218l-.285 1.714c.11-.068 5.516-2.043 5.803-4.229.006-.119.002-1.681.002-1.681s1 2.035 1.162 2.528c.242-.215 1.017-.979 1.561-2.52.147-.418.277-.8.434-1.179.103-.248.188-.472.305-.671.057-.1.024-.195.077-.292-.501-1.672-.544-3.489-.563-5.876-.006-.564.007-1.128.007-1.693v-.24c0-1.094-.032-2.329-.052-3.534-.051-3.337-.786-4.548-.786-4.548l.183.067c.194.062.343.127.492.204.688.354 1.309.879 1.91 1.597 1.18 1.412 1.909 3.006 2.525 4.518.439 1.085.908 2.233 1.397 3.389 1.789-4.396-2.405-8.154-2.405-8.154s3.24 1.748 4.133 3.492c0 0 .776-2.145-2.701-3.681-1.645-.729-3.341-1.44-5.02-2.049l-.992-.363a6.247 6.247 0 01-1.254-.646 4.735 4.735 0 01-.648-.51c.271 1.11.717 2.046 1.238 2.938.814 1.391 1.194 3.17 1.4 4.084l.182.805s-1.033-1.271-1.729-1.66c.023.143.053.278.096.406.824 2.394.645 4.313.645 4.313s-1.261-.901-1.29-.938c.428 2.72-.083 4.229-.083 4.229s-.994-2.853-1.805-3.419c-.382.988-1.041 1.901-1.4 2.253-1.11 1.083-1.762 3.813-1.762 3.813s-1.135-.695-1.143-.734c.082.204.123.938-.201 2.403 0 0-1.092-1.118-1.102-1.222 0 0-.825 2.58-1.027 2.58-.068 0-.398-1.108-.48-1.318-.01.114-.854 2.224-.869 1.735-.013-.417-.475-1.345-1.254-.954C6.239 43.45 2.977 44.531-.457 44.8c-8.482.666-10.529-1.67-10.939-2.188 0 0 3.949.994 9.117.227a28.573 28.573 0 009.537-3.181c2.111-1.151 3.836-2.434 5.242-3.903-.339-1.75-10.964-1.199-10.964-1.199s2.676-2.353 10.249-1.182c.91.143 1.625-.224 2.283-.723.252-.195.376-.54.312-.718-.051-.152-.312-.176-.464-.176-.092 0-.19.01-.297.023a3.141 3.141 0 01-.424.044c-.359 0 8.059-6.004.729-16.298-1.522-2.14-6.018-4.624-8.396-5.444 7.681 8.931.414 15.037-1.49 16.427-1.67 1.223-3.674 2.155-6.301 2.937-.316.093-.639.181-.976.271l-2.408.665 1.377-1.5a.606.606 0 01.235-.182c.086-.036.168-.068.249-.099 1.687-.658 3.049-1.388 4.202-2.246 1.937-1.443 11.174-7.479.443-18.132-.373-.37-1.348-.912-1.523-.972 2.883 4.864.447 8.609.447 8.609s-1.326-4.865-2.1-6.211C-3.239 8.047-4.46 6.743-5.73 6.281c2.003 3.925.019 6.146.019 6.146l-.489-1.621c-.331-1.096-.663-1.75-1.323-2.59a19.435 19.435 0 00-4.334-4.071 16.87 16.87 0 00-3.525-1.868c-1.992-.764-4.113-1.278-6.162-1.776l-.812-.198a191.521 191.521 0 01-6.252-1.621c-1.033-.29-1.913-.664-2.681-1.146-.125.542-.239 1.251-.244 1.829-.112 9.867 6.411 16.073 10.311 19.782zM-38.985 7.492c.242 1.74.572 3.79 1.166 5.803.252.854.605 1.927 1.164 2.949-.35-1.396-.637-2.73-.879-5.508-.031-.375-.104-1.861-.104-1.861s1.854 8.093 10.348 8.99a39.987 39.987 0 01-4.168-8.1c-.941-2.512-1.529-4.923-1.793-7.368a24.282 24.282 0 01-.016-5.224c-.103-.07-.204-.141-.31-.212-.601 2.89-.825 5.506-.683 7.994.113 2.017.865 7.162.865 7.162-.223-.317-1.156-1.826-1.349-2.229-1.214-2.521-1.86-5.402-1.979-8.812-.085-2.404.108-4.867.591-7.525-.208.038-.459.129-.767.279l-.034.018-.104.098c-.146.137-.297.28-.42.432-.492.592-.879 1.312-1.19 2.195-.646 1.857-.742 3.773-.751 5.402-.005 1.681.129 3.483.413 5.517zm-2.838.531c-.097-.752-.188-1.5-.251-2.245-.21-2.471-.112-4.658.296-6.688.359-1.773.923-3.129 1.777-4.26.595-.788 1.258-1.372 2.021-1.777a19.323 19.323 0 01-2.288-3.359 5.034 5.034 0 00-.715 1.292l-.609 1.673s-2.46-3.188-.956-8.48l-.088.13c-.579.835-1.179 1.699-1.727 2.578-1.964 3.141-3.405 6.224-4.405 9.421-.014.04-.017.078-.014.092a35.773 35.773 0 006.959 11.623zm-7.309-16.646c1.527-3.339 3.494-6.708 6.189-10.599a.437.437 0 00.088-.272c.059-1.205.114-2.218.197-3.233.004-.007.004-.014.004-.021-3.818 4.659-6.234 9.962-7.2 15.811.214-.542.455-1.102.722-1.686zm98.219-38.603c-1.305-.726-3.268-.898-4.949-.898-.42 0-.873.025-1.347.08a2.226 2.226 0 01-.265.018c-.369 0-.804.02-1.031-.275-.316-.414-.5-1.383 1.56-1.358.101.003 1.146.146 1.582-.621.349-.614.119-1.644-.146-1.933-1.033-1.125-2.848.557-2.848.557-.391 0-1.387-.314-2.442.74-1.056 1.057.196 3.348-.226 3.536-.405.162-.52.211-.906.413-2.23 1.157-5.211 3.737-3.768 7.289 1.175-2.938 5.383-4.417 7.371-4.746 5.652-.931 9.713.642 9.8.675.078-1.189-1.452-2.958-2.385-3.477zm1.894 11.21c-.102-1.012-.309-1.98-.549-3.052-.312-1.401-1.163-2.322-2.526-2.734-.578-.174-1.217-.253-2.01-.253-1.337 0-2.679.176-4.133.538-1.441.358-2.38.726-3.135 1.225-.938.618-1.5 1.367-1.725 2.293-.167.694-.085 1.402.003 1.941.007.032.011.056.013.056.006 0 .027.011.074.03 2.633 1.051 4.449 2.667 5.555 4.938.062.133.113.159.229.171.328.035.618.055.888.055.768 0 1.412-.146 1.975-.444a2.57 2.57 0 011.202-.308c.408 0 .827.102 1.245.306.303.148.588.322.848.521.156.118.306.247.455.379 1.266-1.635 1.803-3.54 1.591-5.662z" />
        <path fill="#1A1A1A"
            d="M34.525.882c1.176.739 1.3 1.919 1.3 1.919.424 1.837-1.338 4.871-1.902 6.417-.459 1.267-.871 3.433-.531 4.744 1.411-.426 3.166-1.721 4.189-2.839 1.103-1.208 2.004-2.96 1.862-4.574-.061-.653-.37-1.491-.839-2.322-.2-.362-.1-1.131.569-1.134.505-.002.736.077 1.121.589 1.344 1.792 1.538 3.41-.236 5.78-1.28 1.706-2.655 2.914-4.357 4.178-.481.358-1.335.77-1.933.894-.653.132-1.051-.185-1.273-.824a4.348 4.348 0 01-.166-.713c-.378-2.14.108-4.07 1.155-5.985 1.392-2.541 1.38-3.672.121-6.356.001-.001.267-.185.92.226z" />
    </symbol>
    <use xlink:href="#prefix__a" width="108.089" height="108.554" x="-54.045" y="-54.277"
        transform="matrix(7.3988 0 0 -7.3988 615.828 492.209)" overflow="visible" />
</svg>